<svg width="22" height="22" fill="none" xmlns="http://www.w3.org/2000/svg"><path d="M9.307 2.086l1.089.43c.388.152.82.152 1.208 0l1.09-.43A2.66 2.66 0 0116.105 3.5l.466 1.072c.167.383.472.688.855.855l1.072.466a2.66 2.66 0 011.414 3.414l-.43 1.089a1.65 1.65 0 000 1.207l.43 1.09a2.66 2.66 0 01-1.414 3.412l-1.072.466a1.649 1.649 0 00-.855.855l-.466 1.072a2.66 2.66 0 01-3.414 1.414l-1.089-.43a1.65 1.65 0 00-1.207 0l-1.09.43a2.66 2.66 0 01-3.412-1.414l-.466-1.072a1.65 1.65 0 00-.855-.855l-1.072-.466a2.66 2.66 0 01-1.414-3.414l.43-1.089a1.65 1.65 0 000-1.207l-.43-1.09a2.66 2.66 0 011.414-3.412l1.072-.466a1.65 1.65 0 00.855-.855L5.894 3.5a2.66 2.66 0 013.414-1.414h-.001zm3.79 1.023l-1.09.43a2.75 2.75 0 01-2.014 0l-1.089-.43a1.56 1.56 0 00-2 .83L6.436 5.01a2.75 2.75 0 01-1.425 1.425l-1.072.466a1.56 1.56 0 00-.829 2.002l.428 1.088a2.75 2.75 0 010 2.014l-.429 1.09a1.56 1.56 0 00.83 2l1.072.466a2.75 2.75 0 011.425 1.425l.466 1.072a1.56 1.56 0 002.002.829l1.088-.43a2.75 2.75 0 012.014 0l1.09.43a1.559 1.559 0 002-.829l.466-1.072a2.75 2.75 0 011.425-1.425l1.072-.466a1.56 1.56 0 00.829-2.002l-.43-1.088a2.75 2.75 0 010-2.014l.43-1.089a1.56 1.56 0 00-.829-2l-1.072-.467a2.75 2.75 0 01-1.425-1.425l-.466-1.072a1.56 1.56 0 00-2.002-.829h.001zm-3.22 9.839l4.012-4.515a.55.55 0 01.88.651l-.058.08-4.4 4.95a.55.55 0 01-.72.09l-.08-.066-2.2-2.2a.55.55 0 01.702-.842l.076.064 1.787 1.788z" fill="#fff"/></svg>