<svg width="22" height="22" fill="none" xmlns="http://www.w3.org/2000/svg"><path d="M12.556 3.998a.55.55 0 000-.777L10.223.888a.55.55 0 00-.778.777l1.097 1.097A8.25 8.25 0 006.06 17.607a.55.55 0 00.66-.88 7.15 7.15 0 015.819-12.71l.017-.019zM9.446 18l.017-.017c.449.099.914.154 1.39.165l-.006.006a.554.554 0 01.081-.004 7.15 7.15 0 004.355-12.877.551.551 0 01.66-.88 8.25 8.25 0 01-4.482 14.845l1.095 1.095a.548.548 0 01-.174.905.552.552 0 01-.604-.127l-2.333-2.332a.55.55 0 010-.779zm4.144-9.04a.548.548 0 010 .78l-3.3 3.3a.55.55 0 01-.779 0l-1.65-1.65a.55.55 0 11.78-.78l1.26 1.262 2.91-2.912a.55.55 0 01.78 0zM5.5 11a5.5 5.5 0 1111 0 5.5 5.5 0 01-11 0zM11 6.6a4.4 4.4 0 100 8.8 4.4 4.4 0 000-8.8z" fill="#fff"/></svg>