<svg width="88" height="32" fill="none" xmlns="http://www.w3.org/2000/svg"><path d="M15.258 32S-1.852 26.15.165 2.216C5.08.886 10.17.09 15.258 0c5.177.089 10.266.798 15.18 2.216C32.456 26.061 15.258 32 15.258 32z" fill="url(#prefix__paint0_linear_1_24)"/><path d="M15.258 32S-1.852 26.15.165 2.216C5.08.886 10.17.09 15.258 0c5.177.089 10.266.798 15.18 2.216l-1.58 1.418-13.6 26.86V32z" fill="url(#prefix__paint1_linear_1_24)"/><path d="M15.258 30.493S-.186 25.174 1.569 3.457c4.476-1.24 9.038-1.95 13.689-2.039 4.65.089 9.301.798 13.776 2.04 1.755 21.628-13.776 27.035-13.776 27.035z" fill="#fff" stroke="#000" stroke-width=".515" stroke-linecap="round"/><path d="M15.258 30.493S-.186 25.174 1.569 3.457c4.476-1.24 9.038-1.95 13.689-2.039 4.65.089 9.301.798 13.776 2.04 1.755 21.628-13.776 27.035-13.776 27.035z" fill="#fff"/><path d="M1.482 3.191h-.176v.177C.43 14.715 4.202 21.54 7.624 25.263a20.132 20.132 0 007.634 5.407l.088.089h.087a20.133 20.133 0 007.634-5.407c3.335-3.723 7.196-10.549 6.23-21.806V3.28h-.175c-4.475-1.241-9.126-1.862-13.776-1.95A61.39 61.39 0 001.482 3.19zm14.04-1.684c4.474.089 9.037.798 13.424 1.95.088 1.064.088 2.393.088 3.368 0 9.13-3.334 14.892-6.318 18.172-2.018 2.305-4.563 4.166-7.458 5.319-2.808-1.153-5.353-3.014-7.459-5.319-2.895-3.28-6.23-8.953-6.23-18.172 0-.975.088-2.304.176-3.368 1.053-.089 7.458-1.95 13.776-1.95z" fill="url(#prefix__paint2_linear_1_24)"/><path d="M15.258 27.745S2.27 22.958 3.763 4.787c0 0 5.704.443 11.495.443 5.791 0 11.407-.443 11.582-.443 1.492 18.172-11.582 22.958-11.582 22.958z" fill="url(#prefix__paint3_linear_1_24)"/><path d="M15.258 26.238S4.026 22.072 5.342 6.382c0 0 4.914.355 9.916.355 5.001 0 9.828-.355 10.003-.355 1.316 15.601-10.003 19.768-10.003 19.856z" fill="url(#prefix__paint4_radial_1_24)"/><path d="M26.84 4.787c-.175 0-5.79.443-11.582.443-5.791 0-11.495-.443-11.495-.443l1.58 1.595s4.913.355 9.915.355c5.002 0 9.828-.443 10.003-.443l1.58-1.507z" fill="#8B1325"/><path d="M15.258 27.745S2.27 22.958 3.763 4.787l1.58 1.595c-1.229 15.69 9.915 19.856 9.915 19.856v1.507z" fill="url(#prefix__paint5_linear_1_24)"/><path d="M8.326 19.945l1.843-12.233h3.07l3.862 12.233h-3.247l-1.667-6.294-.965 6.294H8.326zM17.54 7.712h3.07l1.755 12.233H19.47l-1.053-6.383-1.053 4.964-1.58-4.964 1.755-5.85z" fill="#fff"/><g fill="#000"><path d="M43.337 13.651h-2.282l-2.193-5.673-.79 5.673h-2.545l1.668-10.549h2.456l3.686 10.549zM41.67 8.244l1.842-5.142h2.545l1.492 10.549h-2.545l-.702-5.673-1.492 3.368-1.14-3.102zM57.025 11.79l-.614 1.772h-2.544l3.51-10.548h2.632l3.422 10.548h-2.545l-.614-1.772h-3.247zm1.668-5.496L57.64 9.662h2.018l-.965-3.368zM76.154 10.46H71.24c0 1.063.527 1.595 1.404 1.595.439 0 .878-.177 1.141-.62h2.194a3.057 3.057 0 01-1.229 1.861c-.614.444-1.316.62-2.106.62-1.93.178-3.597-1.329-3.773-3.279v-.532a3.484 3.484 0 013.159-3.811h.439c2.281 0 3.597 1.595 3.597 3.989l.088.177zm-2.106-1.507c-.088-.62-.702-1.152-1.316-1.152-.702 0-1.228.443-1.404 1.152h2.72zM84.14 10.46h-4.915c0 1.063.527 1.595 1.492 1.595.439 0 .877-.177 1.14-.62h2.194a3.058 3.058 0 01-1.228 1.861c-.614.444-1.316.62-2.106.62-1.93.178-3.685-1.329-3.773-3.279v-.532a3.484 3.484 0 013.159-3.811h.526c2.282 0 3.598 1.595 3.598 3.989l-.088.177zm-2.107-1.507c-.088-.62-.702-1.152-1.316-1.152-.702 0-1.228.443-1.404 1.152h2.72zM84.49 5.053c0-.975.79-1.773 1.755-1.773A1.77 1.77 0 0188 5.053a1.77 1.77 0 01-1.755 1.772c-.965 0-1.755-.709-1.755-1.772zm.263 0c0 .797.702 1.507 1.492 1.507s1.492-.71 1.492-1.507c0-.798-.702-1.507-1.492-1.507s-1.492.62-1.492 1.507zm2.37.975h-.352l-.526-.887h-.35v.887h-.264v-1.95h.79c.35 0 .701.088.701.531 0 .266-.175.532-.438.532h-.176l.615.887zm-1.229-1.684v.531h.351c.263 0 .614 0 .614-.266s-.175-.266-.438-.266h-.527z"/></g><path d="M64.308 8.244h-1.316V6.47h1.404v-.798c0-2.127.965-2.836 2.808-2.836.439 0 .79.088 1.14.088l-.087 1.684c-.263-.088-.439-.088-.702-.088-.614 0-.79.443-.79 1.152v.798h1.668v1.773h-1.756v5.407h-2.369V8.244z" fill="#000"/><g fill="#000"><path d="M40.704 18.704c-.614-.266-1.228-.444-1.842-.444-.79 0-1.755.266-1.755 1.33 0 1.861 4.387 1.418 4.387 4.698 0 2.128-1.667 3.014-3.685 3.014-.702 0-1.404-.177-2.018-.443l.175-1.33a9.18 9.18 0 002.106.532c.79 0 1.93-.443 1.93-1.684 0-2.216-4.3-1.684-4.3-4.698 0-1.773 1.493-2.66 3.248-2.66.701 0 1.491.178 2.193.355l-.439 1.33zM43.425 17.197h5.703v1.24h-4.212v2.926h3.861v1.24h-3.86v3.28h4.211v1.242h-5.703v-9.928zM57.815 18.792c-.614-.354-1.316-.532-2.106-.532-2.106 0-3.86 1.685-3.86 3.812s1.667 3.9 3.772 3.9c.79 0 1.492-.177 2.194-.532l.088 1.33c-.702.266-1.492.443-2.282.443-3.159 0-5.352-2.039-5.352-5.23 0-3.014 2.281-5.14 5.352-5.14.79 0 1.58.088 2.282.442l-.088 1.507zM67.028 22.958c0 2.837-1.491 4.255-3.948 4.255s-3.949-1.507-3.949-4.255v-5.761h1.404v5.673c0 1.861.615 3.19 2.457 3.19 1.843 0 2.457-1.329 2.457-3.19v-5.673h1.492l.087 5.761zM69.31 17.197h2.457c2.018 0 3.949.354 3.949 2.659 0 1.152-.966 2.127-2.106 2.216.438.177.614.355.965.975l1.93 3.989h-1.667l-1.58-3.457c-.438-.975-.965-.975-1.667-.975h-.877v4.432H69.31v-9.84zm1.404 4.255h1.228c1.404 0 2.194-.621 2.194-1.596 0-.887-.702-1.507-2.018-1.507h-1.404v3.102zM78.172 17.197h5.704v1.24h-4.212v2.926h3.86v1.24h-3.86v3.28h4.212v1.242h-5.704v-9.928z"/></g><path d="M53.34 8.687c-.439-.266-.877-.443-1.404-.443a1.77 1.77 0 00-1.755 1.773v.177c0 .975.79 1.861 1.843 1.861h.088c.526 0 .965-.088 1.491-.354v1.773c-.614.266-1.228.354-1.842.354-2.019.178-3.686-1.33-3.861-3.368v-.355c-.088-2.039 1.491-3.723 3.51-3.723h.35c.615 0 1.229.089 1.756.443l-.176 1.862z" fill="#000"/><defs><linearGradient id="prefix__paint0_linear_1_24" x1="12.326" y1="2.91" x2="29.788" y2="32.999" gradientUnits="userSpaceOnUse"><stop stop-color="#646567"/><stop offset=".097" stop-color="#717274"/><stop offset=".317" stop-color="#898B8D"/><stop offset=".54" stop-color="#9A9B9D"/><stop offset=".766" stop-color="#A4A5A7"/><stop offset="1" stop-color="#A7A8AA"/></linearGradient><linearGradient id="prefix__paint1_linear_1_24" x1="18.475" y1="9.876" x2="-3.209" y2="23.029" gradientUnits="userSpaceOnUse"><stop stop-color="#C6C7C8"/><stop offset=".092" stop-color="#DCDDDD"/><stop offset=".203" stop-color="#F0F0F0"/><stop offset=".316" stop-color="#FBFBFB"/><stop offset=".433" stop-color="#fff"/><stop offset=".537" stop-color="#F6F7F7"/><stop offset=".704" stop-color="#DFDFE0"/><stop offset=".913" stop-color="#B9BABB"/><stop offset="1" stop-color="#A7A8AA"/></linearGradient><linearGradient id="prefix__paint2_linear_1_24" x1="24.061" y1="6.51" x2="1.255" y2="20.833" gradientUnits="userSpaceOnUse"><stop stop-color="#4B4B4D"/><stop offset=".013" stop-color="#4D4D4F"/><stop offset=".253" stop-color="#67686A"/><stop offset=".497" stop-color="#797A7C"/><stop offset=".744" stop-color="#838486"/><stop offset="1" stop-color="#87888A"/></linearGradient><linearGradient id="prefix__paint3_linear_1_24" x1="8.858" y1="7.661" x2="27.737" y2="21.634" gradientUnits="userSpaceOnUse"><stop stop-color="#8B1325"/><stop offset=".607" stop-color="#CB0233"/><stop offset=".708" stop-color="#CB0233"/><stop offset="1" stop-color="#8A193F"/></linearGradient><linearGradient id="prefix__paint5_linear_1_24" x1=".378" y1="26.888" x2="21.186" y2="20.691" gradientUnits="userSpaceOnUse"><stop stop-color="#8B1325"/><stop offset=".607" stop-color="#CB0233"/><stop offset=".708" stop-color="#CB0233"/><stop offset="1" stop-color="#8A193F"/></linearGradient><radialGradient id="prefix__paint4_radial_1_24" cx="0" cy="0" r="1" gradientUnits="userSpaceOnUse" gradientTransform="matrix(20.2313 0 0 20.4378 -8440.89 -6145.15)"><stop stop-color="#CB0233"/><stop offset=".461" stop-color="#CB0233"/><stop offset="1" stop-color="#8A193F"/></radialGradient></defs></svg>