<svg width="82" height="32" fill="none" xmlns="http://www.w3.org/2000/svg"><g clip-path="url(#prefix__clip0_1_58)"><path d="M13.722 4.251C6.145 4.251 0 10.464 0 18.125c0 7.66 6.145 13.872 13.722 13.872s13.722-6.212 13.722-13.872S21.3 4.252 13.722 4.252zm-.051 4.353c5.204 0 9.417 4.26 9.417 9.52 0 5.262-4.213 9.521-9.417 9.521s-9.43-4.26-9.43-9.52c0-5.261 4.226-9.521 9.43-9.521z" fill="#FEB511"/><path d="M31.519 7.244v12.085h2.383v-8.38l4.228 8.38h2.575V7.244h-2.382v7.538l-3.909-7.538H31.52zm14.632 2.992c-.6 0-1.193.118-1.747.35a4.553 4.553 0 00-1.48.999 4.61 4.61 0 00-.99 1.497 4.65 4.65 0 00-.345 1.765c0 2.552 2.038 4.625 4.562 4.625 2.524 0 4.574-2.073 4.574-4.625 0-2.551-2.05-4.61-4.574-4.61zm.012 2.24c1.292 0 2.332 1.066 2.332 2.371a2.34 2.34 0 01-2.331 2.358 2.352 2.352 0 01-2.345-2.358c.001-.628.249-1.23.688-1.675a2.336 2.336 0 011.656-.695zm5.18-2.044v8.897h2.589v-3.612c0-1.28.276-2.037.736-2.586.477-.57.896-.903 2.176-.92l.97.013.014 4.07c.002.622.032 1.147.17 1.594.318 1.028 1.091 1.592 2.586 1.592.683 0 1.349-.093 1.98-.328l-.31-1.806c-.296.115-.65.188-.92.19-.759.007-.934-.328-.931-1.131v-4.181h1.864l.006-1.793h-1.87l-.006-2.519-2.09-.006-.447 2.525h-1.217c-.389 0-.688.004-.982.08-1.246.317-1.758 1.243-2.072 1.824l-.731-1.904h-1.515zm15.787-.196c-.599 0-1.192.118-1.746.35a4.553 4.553 0 00-1.48.999c-.424.428-.76.937-.99 1.497a4.65 4.65 0 00-.345 1.765c0 2.552 2.038 4.625 4.561 4.625 2.524 0 4.575-2.073 4.575-4.625 0-2.551-2.05-4.61-4.575-4.61zm.013 2.24c1.291 0 2.332 1.066 2.332 2.371a2.34 2.34 0 01-2.332 2.358 2.352 2.352 0 01-2.345-2.358c.002-.628.25-1.23.689-1.675a2.336 2.336 0 011.656-.695zm10.245-2.24c-1.185.006-2.157.582-3.063 1.567l-.5-1.373h-1.511v8.9h2.524v-6.115c.258-.295.841-.843 1.588-.842.95.001 1.294.618 1.294 1.309l.014 5.647h2.575v-5.726c.002-2.226-1.28-3.377-2.921-3.367zm3.155 1.227v-.85h-.246v-.177h.687v.176h-.252v.851h-.19zm.571 0v-1.027h.274l.182.68.171-.68H82v1.027h-.144v-.8l-.224.8h-.137l-.205-.814v.814h-.176zM27.573 1.091v1.062h1.05V1.09h-1.05zm0 1.062h-1.948v1.062h1.948V2.153zm-1.948 1.062h-.974v2.073h.974V3.215zm0 2.073v1.01h1v-1.01h-1zm1 0h1.101V4.29h-1.102v.998zm-1 1.01h-.974v1.037H23.64V6.298h-1.653v.738h-.897v.907h.987v1.01h-1l.013-1.01h-1.076v1.593h-1v.998h-.678v1.01h-.718c-1.543 2.559-2.781 4.922-3.498 6.67-1.967-2.646-2.89-3.6-4.548-4.532-.592-.334-1.12-.489-1.499-.273-.393.225-.508.935-.012 1.49 3.079 3.448 3.633 5.287 4.753 7.915.334.783.963 1.12 1.678 1.14.383.01.852-.107 1.166-.48.146-.173.189-.41.307-.7.937-2.28 1.975-4.569 3.473-6.748l.012-1.14h.795l-.013-1.01h.858l-.012-1.205h1V11.57h-1.013l.013-1.036h1v1.036h.999v-1.05h.782V9.29h.909v-.842h.858v-2.15zm-1.986 0h1.012v-1.01H23.64v1.01zm0-1.01v-.972h-1.012v.972h1.012z" fill="#000"/><path d="M25.625 3.22h.997v1.064h-.997V3.22zm2.993-1.064h1.08V3.22h-1.08V2.156zm0-2.153h1.08v1.089h-1.08V.002z" fill="#FEB511"/><path d="M32.086 28.899h-.476v-6.631h.801v2.451c.317-.401.761-.678 1.252-.662 1.332.041 1.824 1.24 1.839 2.4.018 1.389-.738 2.521-1.958 2.534a1.478 1.478 0 01-1.275-.67l-.183.578zm.33-1.049c.328.305.39.47 1.024.476.952.008 1.196-1.06 1.194-1.802-.002-.935-.257-1.737-1.083-1.76-.52-.016-.875.244-1.125.528l-.01 2.558zm3.778 2.704l.105-.611c.672.135 1.157-.012 1.422-.761l-1.666-5.03h.834l1.177 4.01 1.111-4.01h.815l-1.618 5.21c-.374 1.204-1.247 1.416-2.18 1.192zm6.25-2.354l.408-.57c.62.45 1.088.633 1.852.636.825.004 1.353-.43 1.348-1.102-.013-1.888-3.215-.83-3.27-3.345-.024-1.102.947-1.645 1.884-1.65.707-.004 1.37.104 1.822.426l-.353.641c-.212-.212-.975-.355-1.39-.358-.72-.005-1.177.284-1.198.897-.06 1.804 3.315.81 3.31 3.37-.003 1.193-.884 1.813-2.156 1.824-1.175.01-2.048-.526-2.257-.769zm9.72.693V24.16h.494l.193.772c.388-.523 1.062-.872 1.628-.87.67.001.954.478 1.04.828.423-.497.99-.829 1.563-.833.988-.009 1.215.72 1.215 1.537v3.299l-.802.002v-3.04c0-.665-.079-1.097-.643-1.085-.625.014-.958.43-1.186.635v3.49h-.832v-3.129c0-.635-.102-1.003-.636-.991-.537.012-.694.23-1.215.647v3.474l-.819-.003zm10.106-.565c-.415.44-.948.65-1.447.646-.796-.008-1.44-.498-1.437-1.294.003-.971.665-1.24 1.233-1.43.56-.189 1.007-.254 1.515-.343.022-.845-.155-1.157-.838-1.162-.615-.004-1.144.28-1.371.398l-.29-.54c.224-.178.79-.537 1.715-.545 1.016-.009 1.62.568 1.621 1.645l.001 3.192h-.493l-.209-.567zm-.13-1.87c-.503.1-.78.183-1.176.31-.508.164-.753.423-.747.894.006.494.328.684.729.675.48-.011.789-.17 1.192-.477l.003-1.402zm9.307 1.796l.122.563c-.281.157-.702.146-.87.147-.99.003-1.138-.645-1.138-1.384v-2.838h-.699v-.59h.7l.239-1.349.572-.002v1.351h1.054v.59h-1.054v2.88c0 .704.29.706.563.718.262.01.51-.086.51-.086zm4.07-.398l.34.491c-.357.283-.756.628-1.616.631-1.431.004-2.07-1.103-2.065-2.42.007-1.313.606-2.493 1.926-2.5 1.64-.01 1.872 1.593 1.871 2.71h-2.929c.002.896.362 1.547 1.1 1.554.763.007 1.372-.466 1.372-.466zM73.043 26.2h2.082c-.041-.743-.23-1.525-1.017-1.515-.842.01-1.008.795-1.065 1.515zm7.195 2.147a2.23 2.23 0 01-1.555.618c-1.318.01-1.966-1.017-1.966-2.437 0-1.413.704-2.469 2.073-2.471a2.074 2.074 0 011.358.501l-.354.544c-.198-.159-.633-.38-1.013-.375-.932.014-1.222.708-1.22 1.78.002.892.197 1.794 1.216 1.803.303.003.67-.105 1.063-.45l.398.487zM47.48 30.554l.104-.611c.673.135 1.158-.012 1.423-.761l-1.666-5.03h.834l1.177 4.01 1.111-4.01h.815l-1.618 5.21c-.374 1.204-1.248 1.416-2.18 1.192zm16.856-1.661V24.16h.495l.191.772c.39-.523 1.118-.876 1.776-.87.852.006 1.186.766 1.186 1.565v3.268h-.832v-3.129c0-.635-.102-1.003-.635-.991-.537.012-.84.23-1.362.647v3.474l-.819-.003z" fill="#999"/></g><defs><clipPath id="prefix__clip0_1_58"><path fill="#fff" d="M0 0h82v32H0z"/></clipPath></defs></svg>