<svg width="180" height="15" fill="none" xmlns="http://www.w3.org/2000/svg"><g clip-path="url(#prefix__clip0_1_142)"><path opacity=".07" d="M22.105.5H1.895C.82.5 0 1.258 0 2.25v10.5c0 .992.884 1.75 1.895 1.75h20.21c1.074 0 1.895-.758 1.895-1.75V2.25C24 1.258 23.116.5 22.105.5z" fill="#000"/><path d="M22.105 1.083c.695 0 1.264.525 1.264 1.167v10.5c0 .642-.569 1.167-1.264 1.167H1.895c-.695 0-1.263-.525-1.263-1.167V2.25c0-.642.568-1.167 1.263-1.167h20.21z" fill="#fff"/><path d="M17.874 6.392h-.19c-.252.583-.442.875-.631 1.75h1.2c-.19-.875-.19-1.284-.379-1.75zm1.832 3.441h-1.074c-.063 0-.063 0-.126-.058l-.127-.525-.063-.117H16.8c-.063 0-.126 0-.126.117l-.19.525c0 .058-.063.058-.063.058h-1.326l.126-.291 1.832-3.967c0-.292.19-.408.505-.408h.948c.063 0 .126 0 .126.116l.884 3.792c.063.233.126.408.126.642.064.058.064.058.064.116zm-8.464-.175l.253-1.05c.063 0 .126.059.126.059.442.175.885.291 1.327.233.126 0 .316-.058.442-.117.316-.116.316-.408.063-.641-.126-.117-.316-.175-.505-.292-.253-.117-.506-.233-.695-.408-.758-.584-.505-1.4-.063-1.809.379-.233.568-.466 1.074-.466.757 0 1.578 0 1.957.116h.063a5.71 5.71 0 01-.252.992c-.316-.117-.632-.233-.947-.233-.19 0-.38 0-.569.058-.126 0-.19.058-.252.117a.267.267 0 000 .408l.315.233c.253.117.505.234.695.35.316.175.632.467.695.817.126.525-.063.992-.569 1.342-.316.233-.442.35-.884.35-.884 0-1.579.058-2.147-.117-.063.117-.063.117-.127.058zm-2.21.175c.063-.408.063-.408.126-.583a86.88 86.88 0 00.884-3.908c.064-.117.064-.175.19-.175h1.137c-.127.7-.253 1.225-.442 1.866-.19.875-.38 1.75-.632 2.625 0 .117-.063.117-.19.117M3.159 5.283c0-.058.127-.116.19-.116h2.147c.316 0 .568.175.632.466L6.695 8.2c0 .058 0 .058.063.117 0-.059.063-.059.063-.059l1.327-2.975c-.063-.058 0-.116.063-.116h1.326c0 .058 0 .058-.063.116L7.516 9.542c-.063.116-.063.175-.126.233-.063.058-.19 0-.316 0h-.947c-.064 0-.127 0-.127-.117L4.99 6.042c-.127-.117-.316-.292-.569-.35-.379-.175-1.073-.292-1.2-.292l-.063-.117z" fill="#142688"/></g><g clip-path="url(#prefix__clip1_1_142)"><path opacity=".07" d="M48.105.5h-20.21C26.82.5 26 1.258 26 2.25v10.5c0 .992.884 1.75 1.895 1.75h20.21c1.074 0 1.895-.758 1.895-1.75V2.25C50 1.258 49.116.5 48.105.5z" fill="#000"/><path d="M48.105 1.083c.695 0 1.264.525 1.264 1.167v10.5c0 .642-.569 1.167-1.264 1.167h-20.21c-.695 0-1.263-.525-1.263-1.167V2.25c0-.642.568-1.167 1.263-1.167h20.21z" fill="#5A31F4"/><path d="M39.504 6.166c0 .973-.744 1.667-1.782 1.667h-.978a.089.089 0 00-.046.013.08.08 0 00-.03.034.07.07 0 00-.006.028v1.28a.074.074 0 01-.024.053.082.082 0 01-.058.021h-.685a.086.086 0 01-.058-.022.073.073 0 01-.024-.053V4.575a.07.07 0 01.013-.042.087.087 0 01.069-.034h1.832c1.033 0 1.777.695 1.777 1.668v-.001zm-.854 0c0-.559-.416-.967-.98-.967h-.926a.088.088 0 00-.058.022.074.074 0 00-.024.054v1.779a.07.07 0 00.024.054.087.087 0 00.058.022h.927c.563.003.979-.406.979-.964zm1.057 2.211a.834.834 0 01.098-.432.915.915 0 01.31-.336c.268-.184.685-.28 1.299-.3l.652-.02v-.177c0-.354-.259-.504-.675-.504-.415 0-.678.135-.738.356a.075.075 0 01-.03.039.085.085 0 01-.05.014h-.645a.087.087 0 01-.05-.015.076.076 0 01-.03-.04.067.067 0 01-.002-.031c.096-.524.571-.922 1.575-.922 1.069 0 1.455.457 1.455 1.328v1.85a.072.072 0 01-.025.054.083.083 0 01-.059.021h-.65a.085.085 0 01-.058-.022.073.073 0 01-.024-.053v-.138a.053.053 0 00-.01-.032.06.06 0 00-.029-.021.068.068 0 00-.067.013c-.196.194-.51.335-1.015.335-.742 0-1.232-.354-1.232-.967zm2.359-.4v-.144l-.846.041c-.445.021-.704.19-.704.476 0 .259.238.403.653.403.564 0 .897-.28.897-.776zm1.463 2.683v-.536c0-.011.003-.022.008-.033a.079.079 0 01.023-.025.09.09 0 01.068-.016c.1.017.2.025.303.025a.824.824 0 00.489-.129.723.723 0 00.297-.381l.042-.124a.072.072 0 000-.05l-1.355-3.192a.07.07 0 01-.001-.055.078.078 0 01.04-.042.088.088 0 01.038-.008h.657c.017 0 .034.004.047.013a.078.078 0 01.03.036l.92 2.251a.078.078 0 00.031.038c.014.009.031.014.049.014a.089.089 0 00.048-.014.079.079 0 00.03-.038l.8-2.244a.077.077 0 01.03-.039.087.087 0 01.049-.014h.68c.02 0 .04.007.055.02.015.012.025.03.028.048a.072.072 0 01-.005.037l-1.45 3.544c-.333.824-.905 1.034-1.534 1.034-.12.003-.24-.01-.355-.038a.084.084 0 01-.048-.03.073.073 0 01-.015-.052zM31.412 4.233a3.548 3.548 0 00-2.326.833.127.127 0 00-.018.18l.39.49c.013.017.029.03.048.04a.159.159 0 00.18-.024 2.44 2.44 0 01.795-.484c.296-.111.614-.167.935-.163 1.339 0 2.038.924 2.038 1.837 0 .992-.735 1.69-1.79 1.704-.817 0-1.432-.495-1.432-1.151 0-.166.042-.33.12-.479.078-.15.19-.28.33-.384a.128.128 0 00.02-.189l-.41-.476a.158.158 0 00-.214-.02 2.037 2.037 0 00-.594.69c-.14.268-.213.56-.213.858 0 1.129 1.045 2.014 2.384 2.02h.019c1.59-.018 2.74-1.098 2.74-2.575 0-1.31-1.054-2.707-3.002-2.707z" fill="#fff"/></g><g clip-path="url(#prefix__clip2_1_142)"><path opacity=".07" d="M74.105.5h-20.21C52.82.5 52 1.258 52 2.25v10.5c0 .992.884 1.75 1.895 1.75h20.21c1.074 0 1.895-.758 1.895-1.75V2.25C76 1.258 75.116.5 74.105.5z" fill="#000"/><path d="M74.106 1.083c.694 0 1.263.525 1.263 1.167v10.5c0 .642-.569 1.167-1.263 1.167H53.895c-.695 0-1.263-.525-1.263-1.167V2.25c0-.642.568-1.167 1.263-1.167h20.21z" fill="#fff"/><path d="M67.094 5.342c.127-.584 0-.992-.378-1.342-.38-.408-1.074-.583-1.958-.583h-2.59c-.19 0-.316.116-.379.291L60.842 9.6c0 .117.063.233.19.233h1.705l.252-1.983 1.137-1.283 2.968-1.225z" fill="#003087"/><path d="M67.095 5.342l-.126.116c-.316 1.634-1.39 2.217-2.906 2.217h-.694c-.19 0-.316.117-.38.292l-.378 2.275-.127.583c0 .117.063.233.19.233H64c.19 0 .316-.116.316-.233v-.058l.253-1.4v-.059c0-.116.19-.233.315-.233h.19c1.326 0 2.337-.467 2.59-1.867.126-.583.063-1.05-.253-1.4-.064-.291-.19-.408-.316-.466z" fill="#3086C8"/><path d="M66.716 5.225c-.064-.058-.127-.058-.19-.058s-.126 0-.19-.059c-.189-.058-.442-.058-.694-.058h-1.895c-.063 0-.126 0-.126.058-.127.059-.19.117-.19.234l-.442 2.566v.059c0-.175.19-.292.38-.292h.82c1.58 0 2.59-.583 2.906-2.217v-.116a.504.504 0 00-.316-.117h-.063z" fill="#012169"/></g><g clip-path="url(#prefix__clip3_1_142)"><path opacity=".07" d="M100.105.5h-20.21C78.82.5 78 1.258 78 2.25v10.5c0 .992.884 1.75 1.895 1.75h20.21c1.074 0 1.895-.758 1.895-1.75V2.25c0-.992-.884-1.75-1.895-1.75z" fill="#000"/><path d="M100.106 1.083c.694 0 1.263.525 1.263 1.167v10.5c0 .642-.569 1.167-1.263 1.167H79.895c-.695 0-1.263-.525-1.263-1.167V2.25c0-.642.568-1.167 1.263-1.167h20.211z" fill="#fff"/><path d="M87.474 11.583c2.441 0 4.42-1.828 4.42-4.083s-1.979-4.083-4.42-4.083c-2.442 0-4.421 1.828-4.421 4.083s1.979 4.083 4.42 4.083z" fill="#EB001B"/><path d="M92.526 11.583c2.442 0 4.422-1.828 4.422-4.083s-1.98-4.083-4.421-4.083c-2.442 0-4.421 1.828-4.421 4.083s1.979 4.083 4.42 4.083z" fill="#FFC000"/><path d="M91.895 7.5c0-1.4-.758-2.625-1.895-3.325-1.137.758-1.894 1.983-1.894 3.325s.757 2.625 1.894 3.325c1.137-.7 1.895-1.925 1.895-3.325z" fill="#FF5F00"/></g><g clip-path="url(#prefix__clip4_1_142)"><path opacity=".07" d="M126.105.5h-20.21C104.821.5 104 1.258 104 2.25v10.5c0 .992.884 1.75 1.895 1.75h20.21c1.074 0 1.895-.758 1.895-1.75V2.25c0-.992-.884-1.75-1.895-1.75z" fill="#000"/><path d="M126.106 1.083c.694 0 1.263.525 1.263 1.167v10.5c0 .642-.569 1.167-1.263 1.167h-20.211c-.695 0-1.263-.525-1.263-1.167V2.25c0-.642.568-1.167 1.263-1.167h20.211z" fill="#fff"/><path d="M115.427 7.486v1.867h-.643V4.744h1.7c.203-.003.406.031.595.1.189.07.362.173.508.304.138.12.25.263.328.422a1.246 1.246 0 01-.258 1.459l-.07.067c-.297.261-.693.403-1.103.394l-1.057-.004zm0-2.177v1.626h1.073a.887.887 0 00.634-.235c.12-.115.2-.26.231-.416a.752.752 0 00-.057-.465.825.825 0 00-.324-.358.93.93 0 00-.484-.134l-1.073-.018zm4.095.786c.411-.017.812.11 1.123.358.281.25.431.6.411.962V9.36h-.612v-.447h-.031c-.11.168-.265.306-.45.401a1.304 1.304 0 01-.607.142c-.346.01-.684-.1-.945-.31a.994.994 0 01-.29-.346.912.912 0 01-.097-.427.872.872 0 01.092-.433.948.948 0 01.295-.347 1.839 1.839 0 011.073-.3c.326-.012.65.054.941.193v-.121a.628.628 0 00-.066-.291.669.669 0 00-.198-.235.937.937 0 00-.619-.215 1.043 1.043 0 00-.475.11.956.956 0 00-.358.309l-.565-.33a1.55 1.55 0 01.602-.474c.241-.108.509-.158.776-.144zm-.813 2.292a.44.44 0 00.055.217.471.471 0 00.158.169.817.817 0 00.496.153c.271 0 .531-.099.724-.275a.854.854 0 00.302-.643 1.372 1.372 0 00-.836-.219 1.149 1.149 0 00-.651.172.529.529 0 00-.181.184.493.493 0 00-.067.242zm5.865-2.188l-2.141 4.544h-.662l.809-1.59-1.404-2.954h.696l1.018 2.266.991-2.266h.693z" fill="#5F6368"/><path d="M112.834 7.082c0-.18-.015-.359-.046-.536h-2.71v1.019h1.548a1.159 1.159 0 01-.196.454 1.27 1.27 0 01-.372.347v.661h.924c.281-.251.502-.554.649-.889.147-.335.216-.694.203-1.056z" fill="#4285F4"/><path d="M110.081 9.67a2.89 2.89 0 001.901-.64l-.926-.664a1.873 1.873 0 01-1.515.163 1.769 1.769 0 01-.661-.388 1.595 1.595 0 01-.41-.615h-.949v.682c.238.44.603.809 1.055 1.067a3.04 3.04 0 001.505.395z" fill="#34A853"/><path d="M108.471 7.53a1.468 1.468 0 010-1.013v-.682h-.949a2.468 2.468 0 00-.307 1.188c0 .413.105.82.307 1.189l.949-.683z" fill="#FFC000"/><path d="M110.081 5.424c.408-.007.803.135 1.099.396l.821-.754a2.892 2.892 0 00-1.936-.69 3.038 3.038 0 00-1.495.397 2.735 2.735 0 00-1.049 1.061l.949.683c.111-.315.326-.59.615-.786a1.81 1.81 0 01.996-.307z" fill="#EA4335"/></g><g clip-path="url(#prefix__clip5_1_142)"><path d="M151.718.5h-19.436a49.5 49.5 0 00-.448.003 3.213 3.213 0 00-.445.037 1.59 1.59 0 00-.423.128 1.317 1.317 0 00-.762.966 2.473 2.473 0 00-.039.411l-.004.19v10.531l.004.189c.004.137.012.275.039.41a1.317 1.317 0 00.761.966c.136.064.275.105.424.13.147.024.296.032.445.036l.205.002H151.961c.068 0 .136 0 .204-.002.149-.004.299-.012.446-.036.147-.024.29-.067.423-.13a1.37 1.37 0 00.622-.574 1.29 1.29 0 00.139-.391c.027-.136.036-.274.04-.411l.003-.19V2.46v-.225l-.003-.189a2.474 2.474 0 00-.04-.41 1.316 1.316 0 00-.761-.967 1.602 1.602 0 00-.423-.128 3.207 3.207 0 00-.446-.037 10.996 10.996 0 00-.204-.002L151.718.5z" fill="#E4E4E4"/><path d="M151.718.967h.239l.194.003c.114.003.246.008.37.029.107.018.197.045.284.085a.888.888 0 01.401.371c.043.08.073.162.092.262.022.113.028.236.031.341a16.238 16.238 0 01.004.4v10.084l-.001.222c0 .06-.001.119-.003.178a2.174 2.174 0 01-.031.342.878.878 0 01-.093.261.883.883 0 01-.401.371c-.086.04-.176.068-.282.085a2.78 2.78 0 01-.368.03l-.198.002h-19.915l-.194-.002a2.791 2.791 0 01-.369-.03 1.044 1.044 0 01-.284-.085.905.905 0 01-.401-.37.857.857 0 01-.092-.263 2.054 2.054 0 01-.032-.34l-.003-.18V2.237l.003-.179c.003-.105.009-.227.032-.342a.855.855 0 01.493-.632c.09-.041.185-.07.284-.085.123-.02.256-.026.37-.03l.193-.002h19.677z" fill="#fff"/><path d="M136.385 5.226c.201-.232.337-.543.301-.862a1.336 1.336 0 00-.86.412c-.186.198-.351.523-.308.828.33.026.659-.153.867-.378zm.297.437c-.479-.026-.886.251-1.115.251-.228 0-.579-.238-.958-.231-.493.006-.95.264-1.201.674-.514.819-.135 2.034.365 2.701.243.33.536.694.922.681.365-.013.508-.218.951-.218.443 0 .572.218.958.211.4-.006.65-.33.893-.66.279-.377.393-.74.401-.76-.008-.007-.772-.277-.78-1.09-.007-.68.601-1.004.63-1.024-.344-.469-.88-.522-1.066-.535M141.458 4.742c1.041 0 1.766.663 1.766 1.628 0 .969-.74 1.635-1.792 1.635h-1.153v1.693h-.833V4.742h2.012zm-1.179 2.617h.956c.725 0 1.137-.36 1.137-.985s-.412-.983-1.134-.983h-.959V7.36zm3.152 1.312c0-.635.524-1 1.491-1.054l1.037-.059v-.274c0-.402-.286-.622-.796-.622-.42 0-.725.2-.788.505h-.751c.022-.642.677-1.11 1.562-1.11.951 0 1.572.46 1.572 1.175v2.466h-.769v-.594h-.019c-.219.388-.703.632-1.227.632-.773 0-1.312-.426-1.312-1.065zm2.528-.32v-.277l-.926.055c-.521.03-.792.209-.792.521 0 .303.283.499.725.499.565 0 .993-.334.993-.797zm1.507 2.673v-.594c.052.006.178.013.245.013.368 0 .577-.144.703-.515l.075-.22-1.41-3.606h.87l.982 2.926h.019l.981-2.926h.848l-1.461 3.788c-.335.87-.718 1.154-1.529 1.154-.063 0-.267-.007-.323-.02z" fill="#000"/></g><g clip-path="url(#prefix__clip6_1_142)"><path opacity=".07" d="M178.105.5h-20.21C156.821.5 156 1.258 156 2.25v10.5c0 .992.884 1.75 1.895 1.75h20.21c1.074 0 1.895-.758 1.895-1.75V2.25c0-.992-.884-1.75-1.895-1.75z" fill="#000"/><path d="M178.106 1.083c.694 0 1.263.525 1.263 1.167v10.5c0 .642-.569 1.167-1.263 1.167h-20.211c-.695 0-1.263-.525-1.263-1.167V2.25c0-.642.568-1.167 1.263-1.167h20.211z" fill="#006FCF"/><path d="M161.666 6.49l.489 1.094h-.974l.485-1.094zm10.153.045h-1.881v.483h1.85v.722h-1.846v.538h1.88v.431l1.312-1.31-1.312-1.364-.003.5zm-8.882-1.365h2.523l.56 1.129.519-1.132h6.55l.681.694.704-.694h3.008l-2.223 2.247 2.2 2.233h-3.053l-.681-.694-.71.694h-10.68l-.312-.694h-.714l-.313.694h-2.47l2.076-4.48h2.166l.169.003zm5.471.629h-1.414l-.947 2.063-1.027-2.063h-1.403v2.806l-1.301-2.806h-1.259l-1.504 3.215h.982l.312-.694h1.639l.312.694h1.718V6.72l1.106 2.299h.752l1.099-2.292v2.292h.921l.015-3.22-.001.001zm5.899 1.615l1.599-1.615h-1.151l-1.011 1.007-.978-1.007h-3.723v3.219h3.67l1.019-1.014.978 1.014h1.184l-1.586-1.604h-.001z" fill="#fff"/></g><defs><clipPath id="prefix__clip0_1_142"><path fill="#fff" transform="translate(0 .5)" d="M0 0h24v14H0z"/></clipPath><clipPath id="prefix__clip1_1_142"><path fill="#fff" transform="translate(26 .5)" d="M0 0h24v14H0z"/></clipPath><clipPath id="prefix__clip2_1_142"><path fill="#fff" transform="translate(52 .5)" d="M0 0h24v14H0z"/></clipPath><clipPath id="prefix__clip3_1_142"><path fill="#fff" transform="translate(78 .5)" d="M0 0h24v14H0z"/></clipPath><clipPath id="prefix__clip4_1_142"><path fill="#fff" transform="translate(104 .5)" d="M0 0h24v14H0z"/></clipPath><clipPath id="prefix__clip5_1_142"><path fill="#fff" transform="translate(130 .5)" d="M0 0h24v14H0z"/></clipPath><clipPath id="prefix__clip6_1_142"><path fill="#fff" transform="translate(156 .5)" d="M0 0h24v14H0z"/></clipPath></defs></svg>