<svg width="32" height="32" fill="none" xmlns="http://www.w3.org/2000/svg"><circle cx="16" cy="16" r="16" fill="#2C7EF8"/><mask id="prefix__a" style="mask-type:alpha" maskUnits="userSpaceOnUse" x="6" y="6" width="20" height="20"><path fill="#D9D9D9" d="M6.4 6.4h19.2v19.2H6.4z"/></mask><g mask="url(#prefix__a)"><path d="M12.4 15.2a2.698 2.698 0 01-1.98-.82 2.698 2.698 0 01-.82-1.98c0-.773.273-1.433.82-1.98a2.698 2.698 0 011.98-.82c.773 0 1.433.273 1.98.82.547.547.82 1.207.82 1.98 0 .773-.273 1.433-.82 1.98a2.698 2.698 0 01-1.98.82zm0-1.6c.333 0 .617-.117.85-.35.233-.233.35-.517.35-.85 0-.333-.117-.617-.35-.85a1.157 1.157 0 00-.85-.35c-.333 0-.617.117-.85.35-.233.233-.35.517-.35.85 0 .333.117.617.35.85.233.233.517.35.85.35zm7.2 8.8a2.698 2.698 0 01-1.98-.82 2.698 2.698 0 01-.82-1.98c0-.773.273-1.433.82-1.98a2.698 2.698 0 011.98-.82c.773 0 1.433.273 1.98.82.547.547.82 1.207.82 1.98 0 .773-.273 1.433-.82 1.98a2.698 2.698 0 01-1.98.82zm0-1.6c.333 0 .617-.117.85-.35.233-.233.35-.517.35-.85 0-.333-.117-.617-.35-.85a1.157 1.157 0 00-.85-.35c-.333 0-.617.117-.85.35-.233.233-.35.517-.35.85 0 .333.117.617.35.85.233.233.517.35.85.35zm-9.44 1.04a.758.758 0 01-.22-.56c0-.227.073-.413.22-.56l10.56-10.56a.758.758 0 01.56-.22c.227 0 .413.073.56.22.147.147.22.333.22.56a.758.758 0 01-.22.56L11.28 21.84a.758.758 0 01-.56.22.758.758 0 01-.56-.22z" fill="#fff"/></g></svg>